<svg height="512" width="512" xmlns="http://www.w3.org/2000/svg"><path d="M512 433.5V0H0v433.5h196.667V482H135v30h242v-30h-61.667v-48.5zM482 30v313.5H30V30zM30 403.5v-30h452v30zM285.333 482h-58.667v-48.5h58.667z"/><path d="M331.535 178.307l58.684-43.962v-15.958l-58.684-43.962-17.986 24.01 37.284 27.931-37.284 27.931zm-133.084-24.01l-37.284-27.931 37.284-27.931-17.987-24.01-58.683 43.962v15.958l58.683 43.962zm19.492 19.533l49.15-107.518 27.3 12.48-49.15 107.518zM185.5 223.5h141.001v30H185.5zm-27.083 60h195.166v30H158.417z"/></svg>